<svg height="512pt" viewBox="0 0 512 512" width="512pt" xmlns="http://www.w3.org/2000/svg" xmlns:xlink="http://www.w3.org/1999/xlink"><linearGradient id="a" gradientUnits="userSpaceOnUse" x1="0" x2="512" y1="256" y2="256"><stop offset="0" stop-color="#00f38d"/><stop offset="1" stop-color="#009eff"/></linearGradient><path d="m512 256c0 141.386719-114.613281 256-256 256s-256-114.613281-256-256 114.613281-256 256-256 256 114.613281 256 256zm0 0" fill="url(#a)"/><g fill="#fff"><path d="m348.375 196.25 74.972656-74.96875-21.214844-21.214844-53.757812 53.757813-32.382812-32.382813-21.214844 21.214844zm0 0"/><path d="m381.246094 197.128906c8.40625 17.960938 13.117187 37.988282 13.117187 59.097656 0 34.378907-12.476562 65.898438-33.125 90.28125-7.773437-32.648437-30.171875-59.6875-59.867187-73.78125 12.03125-12.023437 19.484375-28.628906 19.484375-46.941406 0-36.609375-29.785157-66.394531-66.394531-66.394531-36.609376 0-66.394532 29.785156-66.394532 66.394531 0 18.3125 7.453125 34.914063 19.480469 46.9375-29.691406 14.097656-52.089844 41.136719-59.863281 73.785156-20.652344-24.382812-33.125-55.902343-33.125-90.28125 0-77.140624 62.757812-139.902343 139.902344-139.902343 10.191406 0 20.132812 1.109375 29.714843 3.1875l21.167969-21.167969c-16.230469-5.210938-33.347656-8.152344-50.882812-8.152344-44.289063 0-85.929688 17.472656-117.246094 48.789063-31.316406 31.320312-48.5625 72.957031-48.5625 117.246093 0 44.289063 17.246094 85.925782 48.5625 117.242188s72.957031 48.339844 117.246094 48.339844c44.289062 0 85.925781-17.023438 117.242187-48.339844s48.566406-72.953125 48.566406-117.242188c0-27.839843-6.820312-54.628906-19.660156-78.464843zm-163.179688 28.65625c0-20.066406 16.328125-36.394531 36.394532-36.394531 20.066406 0 36.394531 16.328125 36.394531 36.394531s-16.324219 36.394532-36.394531 36.394532c-20.066407 0-36.394532-16.328126-36.394532-36.394532zm-43.339844 145.328125c.445313-43.601562 36.03125-78.933593 79.734376-78.933593 43.703124 0 79.292968 35.332031 79.738281 78.933593-22.636719 15.757813-50.125 25.015625-79.738281 25.015625-29.609376 0-57.097657-9.257812-79.734376-25.015625zm0 0"/></g></svg>