<?xml version="1.0" encoding="iso-8859-1"?>
<!-- Generator: Adobe Illustrator 19.0.0, SVG Export Plug-In . SVG Version: 6.00 Build 0)  -->
<svg version="1.1" id="Capa_1" xmlns="http://www.w3.org/2000/svg" xmlns:xlink="http://www.w3.org/1999/xlink" x="0px" y="0px"
	 viewBox="0 0 512 512" style="enable-background:new 0 0 512 512;" xml:space="preserve">
<g>
	<g>
		<path d="M256,0C114.833,0,0,114.844,0,256s114.833,256,256,256s256-114.844,256-256S397.167,0,256,0z M426.667,288
			c0,5.896-4.771,10.667-10.667,10.667H213.333v32c0,3.979-2.208,7.625-5.75,9.458c-1.542,0.813-3.229,1.208-4.917,1.208
			c-2.146,0-4.292-0.646-6.125-1.927L89.875,264.74c-2.833-2-4.542-5.26-4.542-8.74s1.708-6.74,4.542-8.74l106.667-74.667
			c3.292-2.281,7.542-2.573,11.042-0.719c3.542,1.833,5.75,5.479,5.75,9.458v32H416c5.896,0,10.667,4.771,10.667,10.667V288z"/>
	</g>
</g>
<g>
</g>
<g>
</g>
<g>
</g>
<g>
</g>
<g>
</g>
<g>
</g>
<g>
</g>
<g>
</g>
<g>
</g>
<g>
</g>
<g>
</g>
<g>
</g>
<g>
</g>
<g>
</g>
<g>
</g>
</svg>
